<?xml version="1.0" encoding="utf-8"?>
<!-- Generator: Adobe Illustrator 13.0.0, SVG Export Plug-In . SVG Version: 6.00 Build 14948)  -->
<!DOCTYPE svg PUBLIC "-//W3C//DTD SVG 1.1//EN" "http://www.w3.org/Graphics/SVG/1.1/DTD/svg11.dtd">
<svg version="1.1" xmlns="http://www.w3.org/2000/svg" xmlns:xlink="http://www.w3.org/1999/xlink" x="0px" y="0px"
	 width="418.32px" height="178.68px" viewBox="0 0 418.32 178.68" enable-background="new 0 0 418.32 178.68" xml:space="preserve">
<g id="Layer_2">
	<rect x="-41.34" y="-39.16" fill="#050505" stroke="#000000" width="507" height="282"/>
</g>
<g id="Camada_1">
	<path fill="#FFFFFF" d="M103.248,41.88c2.088,8.352,1.872,12.888,0.433,19.584c-1.872,7.488-5.977,13.032-9.864,16.488
		l13.896,47.447H93.96c-4.607-17.352-10.368-36.504-15.12-53.855c2.809-1.512,10.656-5.977,11.952-16.416
		c1.225-9.792-4.896-17.424-9.071-20.232c-3.673-2.231-9.072-3.96-14.112-2.952c-9.792,1.08-16.416,8.641-17.928,16.992
		c-0.217,1.152-0.217,1.729-0.36,3.313c0,0-3.816,10.728-5.112,14.111h2.88l-0.071,27.864h33.12l3.815,13.536H33.336V76.584h-6.983
		c2.52-7.561,9-24.336,9-24.336c0.792-6.048,1.151-17.641,13.464-27.145c5.76-4.824,14.76-8.063,24.408-7.271
		C89.136,19.776,99.72,30.648,103.248,41.88z"/>
	<path fill="#FFFFFF" d="M117.36,29.496c10.08,22.248,3.528,43.128-3.96,52.991l11.448,42.553h-13.536L98.064,79.248
		c8.208-7.849,13.319-23.832,9.359-37.009c-3.6-13.319-14.688-24.552-30.384-27.647c-16.848-3.456-32.76,5.184-39.527,17.136
		c-4.32,6.552-5.04,12.816-5.761,20.521c0,0-8.496,20.376-11.376,27.792h9l0.072,31.319H84.96l3.889,13.896H15.696V92.28L0,92.208
		c0,0,16.992-38.809,16.92-39.96C17.928,38.64,24.048,21.72,37.008,11.64c6.624-5.184,15.48-10.152,27.288-11.304
		c12.816-1.225,18.288,1.08,26.856,3.96C105.48,10.416,115.2,24.24,117.36,29.496z"/>
	<path fill="#FFFFFF" d="M56.52,52.68c0-7.56,6.12-13.68,13.607-13.68c7.561,0,13.681,6.12,13.681,13.68
		c0,7.488-6.12,13.536-13.681,13.536C62.64,66.216,56.52,60.168,56.52,52.68z"/>
	<path fill="#FFFFFF" d="M220.608,148.728v-2.088c0.576-0.144,1.008-0.432,1.368-0.864c0.576-0.647,0.936-1.439,1.08-2.231
		c0.071-0.072,0.071-0.145,0.071-0.216c0-0.072,0-0.072,0-0.145c0.072-0.216,0.072-0.359,0.072-0.576
		c0.072-0.144,0.072-0.359,0.072-0.504c0-0.647-0.145-1.151-0.433-1.584c-0.287-0.432-0.792-0.647-1.512-0.647
		c-0.288,0-0.504,0.071-0.72,0.071v-2.592h0.072c0.144,0,0.216,0,0.288,0c0.72,0,1.296,0.145,1.728,0.36
		c0.36,0.288,0.648,0.504,0.864,0.864c0.071,0.071,0.144,0.144,0.144,0.287c0.072,0.072,0.145,0.145,0.145,0.217h0.071l1.152-5.4
		h2.952l-3.24,15.192h-2.88l0.288-1.44h-0.072c-0.36,0.504-0.72,0.864-1.152,1.08C220.824,148.584,220.68,148.656,220.608,148.728z
		 M220.608,137.352v2.592c-0.648,0.145-1.08,0.504-1.512,1.009c-0.505,0.72-0.864,1.512-1.009,2.376l0,0
		c-0.071,0.216-0.071,0.359-0.144,0.575c0,0.217,0,0.433,0,0.576c0,0.576,0.144,1.08,0.36,1.584
		c0.287,0.433,0.792,0.721,1.439,0.721c0.288,0,0.576-0.072,0.864-0.145v2.088c-0.36,0.145-0.648,0.288-1.008,0.36
		c-0.145,0-0.36,0.072-0.504,0.072c-0.217,0-0.433,0-0.576,0c-1.368,0-2.305-0.36-2.809-1.152c-0.575-0.792-0.863-1.8-0.863-2.952
		c0-0.288,0-0.647,0.071-0.936c0-0.36,0.072-0.648,0.145-1.009c0.359-1.8,1.08-3.168,2.088-4.104c1.08-1.008,2.16-1.512,3.312-1.656
		C220.536,137.352,220.536,137.352,220.608,137.352L220.608,137.352z M196.128,148.584v-1.729c0.36-0.144,0.721-0.288,1.009-0.576
		c0.504-0.359,0.863-0.792,0.936-1.439l0,0l0.288-1.44c-0.145,0.145-0.36,0.217-0.72,0.36c-0.288,0.072-0.721,0.144-1.368,0.288
		c-0.072,0-0.145,0-0.145,0v-1.944l1.513-0.216c0.071,0,0.144,0,0.216,0c0,0,0.072,0,0.144-0.072c0.216,0,0.36-0.071,0.576-0.216
		c0.145-0.144,0.288-0.288,0.36-0.576c0-0.071,0-0.144,0-0.144c0-0.072,0-0.145,0-0.216c0-0.36-0.145-0.576-0.36-0.721
		c-0.216-0.071-0.504-0.216-0.792-0.216c-0.072,0-0.216,0-0.288,0s-0.216,0-0.288,0c-0.432,0-0.792,0.072-1.08,0.216v-2.376
		c0.36-0.144,0.792-0.144,1.152-0.216c0.144,0,0.288,0,0.432,0c0.072,0,0.217,0,0.36,0c0.216,0,0.432,0,0.72,0
		c0.216,0.072,0.504,0.072,0.721,0.145c0.647,0.071,1.224,0.359,1.728,0.72s0.72,0.936,0.72,1.656c0,0.144,0,0.216,0,0.359
		c0,0.145-0.071,0.216-0.071,0.36l0,0l-1.297,6.12c-0.071,0.216-0.071,0.359-0.071,0.576c-0.072,0.144-0.072,0.288-0.072,0.359
		c0,0.288,0.072,0.504,0.144,0.576c0.072,0.145,0.145,0.216,0.288,0.216l-0.071,0.433h-3.24c0-0.072,0-0.145,0-0.288
		c0-0.072,0-0.145,0-0.216v-0.072l0,0c0-0.145,0-0.216,0-0.36c0-0.072,0-0.216,0-0.359c-0.072,0.071-0.145,0.144-0.216,0.216
		c-0.145,0.071-0.217,0.144-0.288,0.216C196.776,148.224,196.488,148.44,196.128,148.584L196.128,148.584z M205.848,148.872h-2.952
		l3.24-15.192h2.951L205.848,148.872z M196.128,137.568v2.376c-0.071,0-0.144,0.072-0.216,0.145
		c-0.288,0.216-0.504,0.432-0.647,0.72c0,0.072-0.072,0.145-0.072,0.216c-0.072,0.145-0.072,0.216-0.072,0.288l-2.88-0.072
		c0.432-1.512,1.152-2.52,2.088-3.023C194.904,137.928,195.48,137.712,196.128,137.568L196.128,137.568z M196.128,142.104v1.944
		c-0.504,0.144-1.008,0.288-1.367,0.432c-0.433,0.216-0.721,0.648-0.864,1.225c0,0.071,0,0.144,0,0.144
		c0,0.072-0.072,0.072-0.072,0.145v0.071c0,0,0,0,0,0.072c0,0.288,0.072,0.504,0.288,0.648c0.144,0.144,0.36,0.216,0.576,0.287
		c0,0,0.072,0,0.144,0c0.072,0,0.072,0,0.145,0c0.071,0,0.216,0,0.288,0c0.071,0,0.216,0,0.287-0.071
		c0.217,0,0.36-0.072,0.576-0.145v1.729c-0.144,0.071-0.288,0.144-0.504,0.216c-0.504,0.288-1.224,0.36-2.016,0.36
		c-0.72,0-1.368-0.145-1.944-0.576c-0.576-0.36-0.864-1.008-0.864-1.872c0-0.072,0-0.216,0-0.36c0-0.144,0.072-0.288,0.072-0.432
		c0.216-1.08,0.72-1.944,1.44-2.521c0.792-0.576,1.655-0.936,2.592-1.08L196.128,142.104L196.128,142.104z M171.432,149.088v-2.448
		c0.504-0.144,1.008-0.36,1.296-0.72c0.504-0.504,0.863-1.08,1.08-1.656c0.071-0.144,0.144-0.36,0.216-0.504s0.072-0.36,0.144-0.504
		l0,0c0-0.145,0-0.216,0.072-0.36c0-0.144,0-0.288,0-0.432c0-0.072,0-0.145,0-0.216c0-0.072,0-0.145,0-0.217
		c0-0.575-0.144-1.079-0.432-1.512c-0.288-0.432-0.792-0.647-1.656-0.647c-0.288,0-0.504,0-0.72,0v-2.448
		c0.288,0,0.575-0.072,0.863-0.072c0.072,0,0.145,0,0.145,0c0.072,0,0.144,0,0.216,0c1.296,0,2.448,0.36,3.312,1.08
		c0.937,0.648,1.368,1.8,1.368,3.24c0,0.216,0,0.504,0,0.792c0,0.216-0.071,0.504-0.144,0.792l0,0
		c-0.433,1.944-1.225,3.384-2.521,4.392C173.664,148.368,172.584,148.872,171.432,149.088L171.432,149.088z M189.864,141.096
		l-1.584,7.776h-3.024l1.513-6.841c0-0.071,0-0.216,0.071-0.287c0-0.145,0-0.288,0-0.433c0,0,0,0,0-0.072v-0.071
		c0-0.36-0.071-0.648-0.287-0.937c-0.217-0.288-0.648-0.359-1.297-0.359c-0.647,0-1.224,0.216-1.8,0.647
		c-0.504,0.433-0.864,1.08-1.08,1.944l-1.368,6.408h-2.951l2.376-11.232h2.88l-0.36,1.656h0.072c0.072-0.145,0.144-0.216,0.288-0.36
		c0.071-0.144,0.216-0.288,0.359-0.432c0.36-0.288,0.792-0.576,1.225-0.792c0.504-0.216,1.151-0.36,1.872-0.36
		c1.008,0,1.728,0.216,2.376,0.72c0.576,0.433,0.863,1.152,0.863,2.089c0,0.144,0,0.287-0.071,0.432
		C189.936,140.808,189.936,140.952,189.864,141.096L189.864,141.096z M171.432,137.424v2.448c-0.576,0.144-1.009,0.359-1.368,0.72
		c-0.504,0.504-0.864,1.08-1.08,1.656c-0.072,0.216-0.072,0.359-0.145,0.504c-0.071,0.216-0.071,0.359-0.144,0.504
		c0,0.216-0.072,0.432-0.072,0.647c-0.071,0.217-0.071,0.433-0.071,0.648c0,0.504,0.144,1.008,0.432,1.512
		c0.36,0.433,0.864,0.648,1.728,0.648c0.217,0,0.504,0,0.721-0.072v2.448c-0.288,0-0.576,0.072-0.864,0.072
		c-0.072,0-0.145,0-0.216,0c-0.072,0-0.145,0-0.216,0c-1.297,0-2.377-0.36-3.313-1.009c-0.864-0.72-1.368-1.8-1.368-3.239
		c0-0.288,0.072-0.505,0.072-0.792c0-0.288,0.072-0.576,0.144-0.864c0.433-1.944,1.225-3.384,2.521-4.32
		C169.2,138.144,170.28,137.64,171.432,137.424L171.432,137.424z M140.76,148.584v-1.729c0.36-0.144,0.721-0.288,1.08-0.576
		c0.505-0.359,0.792-0.792,0.937-1.439l0,0l0.288-1.44c-0.145,0.145-0.433,0.217-0.72,0.36c-0.288,0.072-0.793,0.144-1.44,0.288
		c0,0-0.072,0-0.145,0v-1.944l1.585-0.216c0.071,0,0.144,0,0.144,0c0.072,0,0.144,0,0.144-0.072c0.217,0,0.433-0.071,0.576-0.216
		c0.216-0.144,0.288-0.288,0.36-0.576c0-0.071,0-0.144,0.072-0.144c0-0.072,0-0.145,0-0.216c0-0.36-0.145-0.576-0.36-0.721
		c-0.288-0.071-0.504-0.216-0.792-0.216c-0.144,0-0.216,0-0.288,0c-0.144,0-0.216,0-0.288,0c-0.504,0-0.864,0.072-1.151,0.216
		v-2.376c0.432-0.144,0.792-0.144,1.224-0.216c0.072,0,0.216,0,0.36,0c0.144,0,0.287,0,0.432,0c0.216,0,0.432,0,0.647,0
		c0.288,0.072,0.505,0.072,0.792,0.145c0.576,0.071,1.152,0.359,1.656,0.72s0.792,0.936,0.792,1.656c0,0.144,0,0.216-0.072,0.359
		c0,0.145,0,0.216,0,0.36l0,0l-1.296,6.12c-0.071,0.216-0.071,0.359-0.144,0.576c0,0.144,0,0.288,0,0.359
		c0,0.288,0,0.504,0.144,0.576c0.072,0.145,0.145,0.216,0.217,0.216l-0.072,0.433h-3.168c0-0.072-0.072-0.145-0.072-0.288
		c0-0.072,0-0.145,0-0.216v-0.072l0,0c0-0.145,0-0.216,0-0.36c0-0.072,0.072-0.216,0.072-0.359
		c-0.072,0.071-0.216,0.144-0.288,0.216c-0.072,0.071-0.145,0.144-0.288,0.216C141.48,148.224,141.12,148.44,140.76,148.584
		L140.76,148.584z M155.016,144.768h3.023c-0.072,0.216-0.216,0.576-0.359,0.937c-0.217,0.359-0.433,0.72-0.721,1.08
		c-0.432,0.575-1.08,1.151-1.943,1.655c-0.792,0.504-1.801,0.721-3.097,0.721c-1.655,0-2.735-0.36-3.312-1.225
		c-0.576-0.792-0.864-1.728-0.864-2.735c0-0.288,0-0.576,0.072-0.792c0-0.288,0.072-0.576,0.072-0.792
		c0.432-1.872,1.151-3.313,2.231-4.536c1.152-1.152,2.592-1.729,4.536-1.729c0.216,0,0.432,0,0.648,0
		c0.216,0.072,0.432,0.072,0.647,0.145c0.72,0.144,1.368,0.504,1.944,1.008s0.864,1.296,0.864,2.448c0,0.071,0,0.216,0,0.359
		c0,0.072,0,0.216-0.072,0.36h-2.952c0-0.072,0-0.072,0-0.072s0,0,0-0.072c0-0.071,0-0.144,0-0.216
		c-0.072-0.072-0.072-0.216-0.072-0.288c-0.072-0.288-0.216-0.576-0.359-0.792c-0.217-0.288-0.576-0.432-1.08-0.359l0,0
		c-0.072,0-0.072,0-0.072,0c-0.792,0-1.368,0.216-1.8,0.72c-0.504,0.504-0.792,1.008-1.008,1.656
		c-0.072,0.144-0.145,0.288-0.145,0.432c-0.072,0.144-0.072,0.288-0.144,0.432v0.072c0,0.072,0,0.072,0,0.145
		c-0.072,0.144-0.072,0.359-0.145,0.575c0,0.145-0.072,0.36-0.072,0.576c0,0.072,0,0.145,0,0.216c0,0,0,0.072,0,0.145
		c0,0.504,0.145,0.936,0.36,1.368c0.216,0.359,0.72,0.576,1.368,0.576c0.504,0,0.864-0.145,1.224-0.36
		c0.288-0.216,0.576-0.504,0.792-0.72c0.145-0.217,0.216-0.36,0.288-0.504C154.944,145.056,155.016,144.912,155.016,144.768
		L155.016,144.768L155.016,144.768z M164.664,137.64l-2.376,11.232h-2.952l2.376-11.232H164.664L164.664,137.64z M164.952,136.272
		H162l0.576-2.735h2.952L164.952,136.272z M140.76,137.568v2.376c-0.071,0-0.144,0.072-0.144,0.145
		c-0.36,0.216-0.504,0.432-0.648,0.72c-0.071,0.072-0.071,0.145-0.144,0.216c0,0.145,0,0.216-0.072,0.288l-2.88-0.072
		c0.504-1.512,1.225-2.52,2.16-3.023C139.608,137.928,140.184,137.712,140.76,137.568L140.76,137.568z M140.76,142.104v1.944
		c-0.504,0.144-0.936,0.288-1.367,0.432c-0.433,0.216-0.721,0.648-0.864,1.225c0,0.071,0,0.144,0,0.144c0,0.072,0,0.072,0,0.145
		v0.071c0,0,0,0,0,0.072c0,0.288,0.072,0.504,0.216,0.648c0.216,0.144,0.36,0.216,0.576,0.287c0.072,0,0.144,0,0.144,0
		c0.072,0,0.145,0,0.145,0c0.144,0,0.216,0,0.288,0c0.144,0,0.216,0,0.359-0.071c0.145,0,0.36-0.072,0.504-0.145v1.729
		c-0.144,0.071-0.287,0.144-0.432,0.216c-0.576,0.288-1.224,0.36-2.016,0.36s-1.44-0.145-2.017-0.576
		c-0.216-0.145-0.359-0.288-0.504-0.504v-2.952c0.288-0.72,0.648-1.296,1.225-1.729c0.72-0.575,1.584-0.936,2.592-1.08
		L140.76,142.104L140.76,142.104z M135.792,135.192v-1.512h0.288L135.792,135.192z M135.792,133.68v1.512l-2.952,13.681h-3.168
		l-3.888-10.801h-0.072l-2.304,10.801h-2.952l3.24-15.192h3.384l3.744,10.584h0.072l2.231-10.584H135.792L135.792,133.68z
		 M135.792,145.128c-0.071,0.216-0.216,0.504-0.216,0.792c-0.072,0.144-0.072,0.288-0.072,0.432c0,0.145-0.071,0.288-0.071,0.36
		c0,0.576,0.144,1.008,0.359,1.368V145.128L135.792,145.128z M107.856,149.088v-2.448c0.576-0.144,1.008-0.36,1.368-0.72
		c0.432-0.504,0.792-1.08,1.08-1.656c0.071-0.144,0.071-0.36,0.144-0.504s0.072-0.36,0.144-0.504l0,0c0-0.145,0-0.216,0.072-0.36
		c0-0.144,0-0.288,0-0.432c0-0.072,0.072-0.145,0.072-0.216c0-0.072,0-0.145,0-0.217c0-0.575-0.216-1.079-0.504-1.512
		c-0.288-0.432-0.792-0.647-1.656-0.647c-0.288,0-0.504,0-0.72,0v-2.448c0.288,0,0.576-0.072,0.864-0.072c0.071,0,0.144,0,0.216,0
		c0.071,0,0.071,0,0.144,0c1.296,0,2.448,0.36,3.313,1.08c0.936,0.648,1.367,1.8,1.367,3.24c0,0.216,0,0.504,0,0.792
		c0,0.216-0.071,0.504-0.144,0.792l0,0c-0.432,1.944-1.224,3.384-2.52,4.392C110.088,148.368,109.008,148.872,107.856,149.088z
		 M107.856,137.424v2.448c-0.576,0.144-1.008,0.359-1.368,0.72c-0.504,0.504-0.864,1.08-1.08,1.656
		c-0.072,0.216-0.072,0.359-0.144,0.504c-0.072,0.216-0.072,0.359-0.145,0.504c0,0.216-0.072,0.432-0.072,0.647
		c0,0.217-0.071,0.433-0.071,0.648c0,0.504,0.144,1.008,0.504,1.512c0.288,0.433,0.792,0.648,1.656,0.648
		c0.216,0,0.504,0,0.72-0.072v2.448c-0.288,0-0.576,0.072-0.864,0.072c-0.072,0-0.144,0-0.216,0s-0.145,0-0.216,0
		c-1.296,0-2.376-0.36-3.313-1.009c-0.864-0.72-1.368-1.8-1.368-3.239c0-0.288,0.072-0.505,0.072-0.792
		c0.072-0.288,0.072-0.576,0.145-0.864c0.432-1.944,1.224-3.384,2.52-4.32C105.624,138.144,106.704,137.64,107.856,137.424
		L107.856,137.424z M88.776,148.872v-0.937l3.096-14.256h2.952l-1.152,5.4l0,0c0.288-0.433,0.792-0.864,1.44-1.225
		c0.648-0.359,1.44-0.504,2.232-0.504c0.936,0,1.728,0.216,2.304,0.72c0.576,0.433,0.936,1.152,0.936,2.089
		c0,0.144-0.071,0.287-0.071,0.432c0,0.216-0.072,0.36-0.072,0.504l0,0l-1.656,7.776h-2.952l1.44-6.841
		c0.072-0.071,0.072-0.216,0.072-0.287c0.071-0.145,0.071-0.288,0.071-0.433c0,0,0,0,0-0.072v-0.071c0-0.36-0.144-0.648-0.359-0.937
		c-0.145-0.288-0.576-0.359-1.225-0.359c-0.647,0-1.224,0.216-1.8,0.647c-0.504,0.433-0.864,1.08-1.08,1.944l-1.368,6.408H88.776
		L88.776,148.872z M88.776,134.616l0.216-0.937h-0.216V134.616z M88.776,133.68v0.937l-3.024,14.256H82.8l3.24-15.192H88.776
		L88.776,133.68z M88.776,147.936l-0.145,0.937h0.145V147.936L88.776,147.936z M76.824,149.088v-2.376
		c0.288-0.072,0.504-0.145,0.72-0.288c0.288-0.216,0.576-0.504,0.721-0.792v-0.072h3.023c-0.432,0.937-1.008,1.656-1.656,2.232
		c-0.647,0.504-1.367,0.863-2.088,1.08C77.328,148.944,77.112,149.016,76.824,149.088L76.824,149.088z M76.824,144.048v-1.944h2.304
		c0-0.072,0-0.144,0-0.216s0-0.144,0-0.216c0-0.648-0.144-1.152-0.504-1.44c-0.288-0.288-0.72-0.432-1.08-0.432
		c-0.071,0-0.071,0-0.071,0c-0.072,0-0.072,0-0.145,0c-0.144,0-0.288,0-0.504,0v-2.376c0.36-0.072,0.72-0.072,1.08-0.072
		c0.144,0,0.288,0,0.504,0c0.145,0,0.288,0,0.432,0.072c0.792,0.072,1.584,0.432,2.232,1.08c0.72,0.576,1.08,1.584,1.08,2.952
		c0,0.359-0.072,0.647-0.072,1.008c-0.072,0.288-0.072,0.72-0.216,1.08l-0.072,0.504H76.824L76.824,144.048z M76.824,137.424v2.376
		c-0.432,0.072-0.864,0.288-1.224,0.576c-0.433,0.432-0.792,1.008-1.08,1.728h2.304v1.944h-2.808c0,0.144,0,0.216,0,0.36
		c0,0.144,0,0.287,0,0.432c0,0.072,0,0.144,0,0.216s0,0.072,0,0.145c0.071,0.432,0.216,0.792,0.504,1.151
		c0.288,0.288,0.792,0.504,1.584,0.504c0.071,0,0.144,0,0.216-0.071c0.072,0,0.144,0,0.216,0s0.216-0.072,0.288-0.072v2.376
		c-0.072,0-0.144,0-0.288,0c-0.288,0.072-0.647,0.072-0.936,0.072c-1.296,0-2.448-0.288-3.24-0.864
		c-0.864-0.648-1.296-1.656-1.296-3.168c0-0.36,0-0.648,0.072-1.008c0-0.288,0.071-0.721,0.144-1.08
		c0.072-0.288,0.216-0.648,0.36-1.152c0.144-0.504,0.359-1.008,0.72-1.512c0.432-0.721,1.152-1.44,2.016-2.088
		C75.024,137.784,75.888,137.496,76.824,137.424L76.824,137.424z M39.6,149.088v-2.448c0.504-0.144,1.008-0.36,1.296-0.72
		c0.504-0.504,0.863-1.08,1.08-1.656c0.071-0.144,0.144-0.36,0.216-0.504s0.072-0.36,0.144-0.504l0,0c0-0.145,0-0.216,0.072-0.36
		c0-0.144,0-0.288,0-0.432c0-0.072,0-0.145,0-0.216c0-0.072,0-0.145,0-0.217c0-0.575-0.144-1.079-0.432-1.512
		c-0.288-0.432-0.864-0.647-1.656-0.647c-0.288,0-0.504,0-0.72,0v-2.448c0.288,0,0.575-0.072,0.863-0.072c0.072,0,0.145,0,0.145,0
		c0.072,0,0.144,0,0.216,0c1.296,0,2.448,0.36,3.313,1.08c0.936,0.648,1.367,1.8,1.367,3.24c0,0.216,0,0.504,0,0.792
		c0,0.216-0.071,0.504-0.144,0.792l0,0c-0.432,1.944-1.224,3.384-2.521,4.392C41.832,148.368,40.752,148.872,39.6,149.088
		L39.6,149.088z M58.032,141.096l-1.656,7.776h-2.952l1.513-6.841c0-0.071,0-0.216,0.071-0.287c0-0.145,0-0.288,0-0.433
		c0,0,0,0,0-0.072v-0.071c0-0.36-0.071-0.648-0.287-0.937c-0.217-0.288-0.648-0.359-1.297-0.359c-0.647,0-1.224,0.216-1.8,0.647
		c-0.504,0.433-0.863,1.08-1.08,1.944l-1.368,6.408h-2.951L48.6,137.64h2.88l-0.36,1.656h0.072c0.072-0.145,0.144-0.216,0.288-0.36
		c0.072-0.144,0.216-0.288,0.359-0.432c0.36-0.288,0.721-0.576,1.225-0.792s1.151-0.36,1.872-0.36c1.008,0,1.728,0.216,2.376,0.72
		c0.576,0.433,0.863,1.152,0.863,2.089c0,0.144,0,0.287-0.071,0.432C58.104,140.808,58.104,140.952,58.032,141.096L58.032,141.096
		L58.032,141.096z M70.128,141.024h-2.88c0,0,0,0,0-0.071l0,0c0-0.36-0.144-0.648-0.288-0.937c-0.216-0.288-0.647-0.432-1.439-0.432
		c-0.648,0-1.152,0.071-1.44,0.288c-0.288,0.144-0.432,0.359-0.504,0.575c-0.072,0-0.072,0.072-0.072,0.145c0,0,0,0.072-0.071,0.072
		c0,0.071,0,0.071,0,0.071l0,0v0.072l0,0c0,0.288,0.216,0.504,0.575,0.648c0.36,0.144,0.792,0.288,1.297,0.359
		c0.216,0.072,0.432,0.072,0.647,0.145c0.216,0,0.36,0.071,0.576,0.144c0.792,0.145,1.512,0.433,2.16,0.792
		c0.647,0.36,0.936,0.937,0.936,1.8c0,0.072,0,0.145,0,0.288c0,0.145-0.071,0.217-0.071,0.36c-0.217,1.008-0.648,1.8-1.297,2.376
		c-0.647,0.504-1.367,0.864-2.088,1.152c-0.432,0.071-0.863,0.216-1.296,0.216c-0.359,0.072-0.792,0.072-1.08,0.072c0,0,0,0-0.071,0
		l0,0c-1.152,0-2.232-0.217-3.168-0.648c-0.937-0.432-1.44-1.224-1.44-2.448c0-0.071,0-0.216,0-0.359
		c0.072-0.145,0.072-0.288,0.072-0.433h3.023c0,0.072,0,0.145,0,0.216c0,0.072,0,0.145,0,0.217c0,0.359,0.145,0.647,0.433,0.936
		c0.359,0.216,0.936,0.288,1.728,0.288c0.504,0,0.937-0.072,1.224-0.216c0.36-0.145,0.576-0.288,0.648-0.504
		c0.072-0.072,0.144-0.145,0.144-0.216c0.072-0.072,0.072-0.145,0.072-0.217l0,0c0-0.071,0.072-0.071,0.072-0.071v-0.072
		c0-0.288-0.216-0.504-0.576-0.648c-0.36-0.144-0.864-0.288-1.368-0.359c-0.216-0.072-0.359-0.072-0.576-0.145
		c-0.144,0-0.359-0.071-0.575-0.144c-0.721-0.145-1.44-0.433-2.088-0.792c-0.648-0.36-0.937-0.937-0.937-1.8
		c0-0.072,0-0.217,0-0.288c0.072-0.145,0.072-0.217,0.072-0.36s0.072-0.288,0.144-0.432c0.072-0.145,0.072-0.36,0.145-0.504
		c0.359-0.721,0.936-1.368,1.728-1.944s1.872-0.864,3.313-0.864c0.144,0,0.216,0,0.359,0c0.072,0,0.216,0,0.288,0
		c0.937,0.072,1.8,0.288,2.521,0.648c0.792,0.432,1.151,1.224,1.151,2.376c0,0.071,0,0.216,0,0.288c0,0.144,0,0.288,0,0.432V141.024
		z M33.264,138.648h-3.168c0-0.144,0-0.288-0.072-0.432c0-0.216,0-0.36-0.072-0.576c-0.144-0.432-0.36-0.792-0.792-1.08
		c-0.36-0.359-1.008-0.504-1.872-0.504c-0.288,0-0.576,0-0.936,0.145c-0.36,0.071-0.721,0.216-1.08,0.432
		c-0.576,0.288-1.08,0.864-1.656,1.584c-0.504,0.792-0.936,1.8-1.224,3.168c-0.072,0.288-0.145,0.576-0.145,0.936
		c-0.072,0.288-0.072,0.576-0.072,0.864c0,0.937,0.217,1.729,0.648,2.376c0.504,0.648,1.224,1.008,2.232,1.008
		c0.863,0,1.655-0.288,2.376-0.72c0.647-0.504,1.224-1.224,1.584-2.16h3.168c-0.648,1.656-1.656,3.024-2.952,4.032
		c-1.296,1.08-2.952,1.584-4.824,1.584c-1.656,0-3.024-0.504-4.032-1.44c-1.008-0.863-1.512-2.304-1.512-4.104
		c0-0.36,0-0.792,0.072-1.152c0.071-0.432,0.144-0.863,0.216-1.296c0.576-2.664,1.656-4.68,3.312-5.976
		c1.656-1.368,3.456-2.017,5.4-2.017c1.728,0,3.024,0.36,3.888,1.152c0.792,0.792,1.296,1.656,1.513,2.592
		c0,0.145,0,0.288,0.071,0.504c0,0.145,0,0.288,0,0.433c0,0.144,0,0.216,0,0.359C33.336,138.432,33.264,138.576,33.264,138.648
		L33.264,138.648L33.264,138.648z M39.6,137.424v2.448c-0.576,0.144-1.009,0.359-1.368,0.72c-0.504,0.504-0.864,1.08-1.08,1.656
		c-0.072,0.216-0.072,0.359-0.145,0.504c-0.071,0.216-0.071,0.359-0.144,0.504c0,0.216-0.072,0.432-0.072,0.647
		c-0.071,0.217-0.071,0.433-0.071,0.648c0,0.504,0.144,1.008,0.432,1.512c0.288,0.433,0.864,0.648,1.728,0.648
		c0.217,0,0.504,0,0.721-0.072v2.448c-0.288,0-0.576,0.072-0.864,0.072c-0.072,0-0.145,0-0.216,0c-0.072,0-0.145,0-0.216,0
		c-1.297,0-2.376-0.36-3.313-1.009c-0.864-0.72-1.368-1.8-1.368-3.239c0-0.288,0-0.505,0.072-0.792c0-0.288,0.072-0.576,0.144-0.864
		c0.433-1.944,1.225-3.384,2.521-4.32C37.368,138.144,38.448,137.64,39.6,137.424z"/>
	<path fill="#FFFFFF" d="M412.344,149.088v-2.448c0.576-0.144,1.008-0.36,1.368-0.72c0.504-0.504,0.863-1.08,1.08-1.656
		c0.071-0.144,0.144-0.36,0.144-0.504c0.072-0.144,0.144-0.36,0.144-0.504l0,0c0-0.145,0.072-0.216,0.072-0.36
		c0-0.144,0-0.288,0-0.432c0.072-0.072,0.072-0.145,0.072-0.216c0-0.072,0-0.145,0-0.217c0-0.575-0.145-1.079-0.432-1.512
		c-0.288-0.432-0.864-0.647-1.729-0.647c-0.216,0-0.504,0-0.72,0v-2.448c0.288,0,0.576-0.072,0.864-0.072c0.071,0,0.144,0,0.216,0
		c0.071,0,0.144,0,0.216,0c1.296,0,2.376,0.36,3.312,1.08c0.864,0.648,1.368,1.8,1.368,3.24c0,0.216-0.072,0.504-0.072,0.792
		c0,0.216-0.071,0.504-0.144,0.792l0,0c-0.36,1.944-1.224,3.384-2.52,4.392C414.576,148.368,413.496,148.872,412.344,149.088z
		 M412.344,137.424v2.448c-0.576,0.144-1.008,0.359-1.368,0.72c-0.432,0.504-0.792,1.08-1.08,1.656c0,0.216-0.072,0.359-0.144,0.504
		c0,0.216-0.072,0.359-0.072,0.504c-0.072,0.216-0.072,0.432-0.145,0.647c0,0.217,0,0.433,0,0.648c0,0.504,0.145,1.008,0.433,1.512
		c0.288,0.433,0.863,0.648,1.655,0.648c0.288,0,0.505,0,0.721-0.072v2.448c-0.288,0-0.576,0.072-0.864,0.072
		c-0.072,0-0.144,0-0.216,0c0,0-0.072,0-0.145,0c-1.296,0-2.447-0.36-3.312-1.009c-0.72-0.575-1.152-1.296-1.296-2.304v-1.872
		c0-0.288,0.071-0.504,0.071-0.72c0.433-1.944,1.297-3.384,2.521-4.32C410.112,138.144,411.192,137.64,412.344,137.424
		L412.344,137.424z M406.512,138l0.071-0.36h-0.071V138z M406.512,137.64V138l-0.433,1.728h-1.8l-1.296,6.12
		c-0.072,0.072-0.072,0.216-0.072,0.288s0,0.144,0,0.216c0,0.145,0.072,0.288,0.217,0.36c0.144,0.072,0.432,0.072,0.863,0.072
		c0.072,0,0.217,0,0.288,0c0.145,0,0.216,0,0.36-0.072l-0.504,2.231c-0.216,0.072-0.433,0.072-0.648,0.072c-0.288,0-0.504,0-0.72,0
		h-0.432c-1.009,0-1.729-0.144-2.089-0.432c-0.359-0.288-0.504-0.648-0.504-1.152c0-0.144,0-0.288,0-0.432
		c0.072-0.145,0.072-0.288,0.072-0.433l1.512-6.84h-1.584l0.504-2.088h1.513l0.647-3.096h2.952l-0.647,3.096H406.512L406.512,137.64
		z M406.512,143.976c0,0-0.072,0.072-0.072,0.145c0,0.288,0,0.504,0,0.792s0,0.647,0.072,0.936V143.976L406.512,143.976z
		 M380.16,149.088v-2.376c0.288-0.072,0.504-0.145,0.721-0.288c0.288-0.216,0.575-0.504,0.72-0.792v-0.072h3.023
		c-0.432,0.937-1.008,1.656-1.655,2.232c-0.648,0.504-1.368,0.863-2.088,1.08C380.664,148.944,380.448,149.016,380.16,149.088
		L380.16,149.088z M380.16,144.048v-1.944h2.305c0-0.072,0-0.144,0-0.216s0-0.144,0-0.216c0-0.648-0.145-1.152-0.504-1.44
		c-0.288-0.288-0.721-0.432-1.08-0.432c-0.072,0-0.072,0-0.072,0c-0.072,0-0.072,0-0.145,0c-0.144,0-0.287,0-0.504,0v-2.376
		c0.36-0.072,0.721-0.072,1.08-0.072c0.145,0,0.288,0,0.504,0c0.145,0,0.288,0,0.433,0.072c0.792,0.072,1.584,0.432,2.231,1.08
		c0.721,0.576,1.08,1.584,1.08,2.952c0,0.359-0.072,0.647-0.072,1.008c-0.071,0.288-0.071,0.72-0.216,1.08l-0.071,0.504H380.16
		L380.16,144.048z M397.872,141.096l-1.655,7.776h-2.952l1.439-6.841c0.072-0.071,0.072-0.216,0.145-0.287c0-0.145,0-0.288,0-0.433
		c0,0,0,0,0-0.072v-0.071c0-0.36-0.072-0.648-0.288-0.937s-0.648-0.359-1.296-0.359c-0.648,0-1.224,0.216-1.8,0.647
		c-0.504,0.433-0.864,1.08-1.08,1.944l-1.368,6.408h-2.952l2.376-11.232h2.88l-0.359,1.656l0,0c0.144-0.145,0.216-0.216,0.359-0.36
		c0.072-0.144,0.216-0.288,0.36-0.432c0.36-0.288,0.72-0.576,1.224-0.792s1.152-0.36,1.872-0.36c0.937,0,1.729,0.216,2.304,0.72
		c0.648,0.433,0.937,1.152,0.937,2.089c0,0.144,0,0.287-0.072,0.432C397.944,140.808,397.944,140.952,397.872,141.096
		L397.872,141.096z M380.16,137.424v2.376c-0.432,0.072-0.863,0.288-1.224,0.576c-0.432,0.432-0.792,1.008-1.08,1.728h2.304v1.944
		h-2.808c0,0.144,0,0.216,0,0.36c0,0.144,0,0.287,0,0.432c0,0.072,0,0.144,0,0.216s0,0.072,0,0.145
		c0.072,0.432,0.216,0.792,0.504,1.151c0.288,0.288,0.792,0.504,1.584,0.504c0.072,0,0.145,0,0.216-0.071c0.072,0,0.145,0,0.216,0
		c0.072,0,0.217-0.072,0.288-0.072v2.376c-0.071,0-0.144,0-0.288,0c-0.287,0.072-0.647,0.072-0.936,0.072
		c-1.296,0-2.448-0.288-3.24-0.864c-0.864-0.648-1.296-1.656-1.296-3.168c0-0.36,0-0.648,0.072-1.008
		c0-0.288,0.072-0.721,0.144-1.08c0.072-0.288,0.216-0.648,0.36-1.152c0.144-0.504,0.36-1.008,0.72-1.512
		c0.433-0.721,1.152-1.44,2.017-2.088C378.36,137.784,379.224,137.496,380.16,137.424L380.16,137.424z M349.992,148.872v-1.513
		l2.017-9.72h3.023l-2.448,11.232H349.992L349.992,148.872z M349.992,138.216l0.288-0.576h-0.288V138.216L349.992,138.216z
		 M355.248,136.272h-2.951l0.575-2.735h3.024L355.248,136.272L355.248,136.272z M373.248,141.096l-1.655,7.776h-3.024l1.512-6.841
		c0-0.144,0-0.287,0.072-0.432c0-0.144,0-0.288,0-0.36c0-0.504-0.144-0.863-0.359-1.079c-0.217-0.217-0.505-0.288-0.864-0.288
		c-0.721,0-1.296,0.216-1.729,0.647c-0.359,0.433-0.647,0.937-0.792,1.656l-1.439,6.696h-2.952l1.439-6.769
		c0-0.072,0.072-0.216,0.072-0.359c0-0.072,0.072-0.217,0.072-0.36c0,0,0-0.072,0-0.145c0-0.071,0-0.144,0-0.216
		c0-0.288-0.072-0.576-0.288-0.792c-0.216-0.288-0.576-0.359-1.152-0.359c-0.72,0-1.224,0.144-1.584,0.575
		c-0.359,0.433-0.576,1.009-0.72,1.584l-1.44,6.841h-3.023l2.448-11.232h2.808l-0.36,1.656h0.072
		c0.072-0.145,0.145-0.216,0.288-0.36c0.072-0.072,0.145-0.216,0.288-0.359c0.288-0.288,0.72-0.576,1.224-0.864
		c0.504-0.216,1.08-0.36,1.801-0.36c0.791,0,1.439,0.145,1.8,0.433c0.359,0.287,0.72,0.72,0.936,1.367
		c0.072-0.144,0.216-0.216,0.36-0.359c0.144-0.145,0.288-0.288,0.432-0.433c0.288-0.216,0.648-0.504,1.08-0.72
		s0.937-0.288,1.512-0.288c1.009,0,1.729,0.216,2.376,0.72c0.576,0.433,0.864,1.152,0.864,2.089c0,0.144,0,0.287,0,0.432
		C373.248,140.808,373.248,140.952,373.248,141.096L373.248,141.096z M349.992,137.64v0.576l-6.12,10.656h-3.168l-1.655-11.232
		h3.312l0.576,8.28h0.072l4.104-8.28H349.992L349.992,137.64z M349.992,147.36l-0.359,1.513h0.359V147.36L349.992,147.36z
		 M325.224,149.088v-2.448c0.576-0.144,1.008-0.36,1.368-0.72c0.504-0.504,0.863-1.08,1.08-1.656
		c0.071-0.144,0.144-0.36,0.216-0.504c0-0.144,0.072-0.36,0.072-0.504l0,0c0.071-0.145,0.071-0.216,0.071-0.36
		c0.072-0.144,0.072-0.288,0.072-0.432c0-0.072,0-0.145,0-0.216c0-0.072,0-0.145,0-0.217c0-0.575-0.144-1.079-0.432-1.512
		c-0.288-0.432-0.864-0.647-1.656-0.647c-0.288,0-0.504,0-0.792,0v-2.448c0.288,0,0.576-0.072,0.864-0.072c0.071,0,0.144,0,0.216,0
		s0.144,0,0.216,0c1.296,0,2.376,0.36,3.312,1.08c0.937,0.648,1.368,1.8,1.368,3.24c0,0.216,0,0.504-0.071,0.792
		c0,0.216,0,0.504-0.072,0.792l0,0c-0.432,1.944-1.296,3.384-2.592,4.392C327.456,148.368,326.377,148.872,325.224,149.088
		L325.224,149.088z M334.944,148.872h-2.952l3.24-15.192h2.952L334.944,148.872z M325.224,137.424v2.448
		c-0.504,0.144-0.937,0.359-1.296,0.72c-0.504,0.504-0.864,1.08-1.08,1.656c-0.072,0.216-0.145,0.359-0.216,0.504
		c0,0.216-0.072,0.359-0.072,0.504c-0.072,0.216-0.072,0.432-0.145,0.647c0,0.217,0,0.433,0,0.648c0,0.504,0.145,1.008,0.433,1.512
		c0.288,0.433,0.864,0.648,1.656,0.648c0.288,0,0.504,0,0.72-0.072v2.448c-0.288,0-0.576,0.072-0.864,0.072
		c-0.072,0-0.072,0-0.144,0c-0.072,0-0.145,0-0.217,0c-1.296,0-2.447-0.36-3.312-1.009c-0.36-0.288-0.648-0.647-0.864-1.008v-5.04
		c0.433-1.368,1.225-2.448,2.232-3.168C323.064,138.144,324.144,137.64,325.224,137.424L325.224,137.424z M319.824,138.504
		l0.504-0.864h-0.504V138.504z M319.824,137.64v0.864l-5.976,10.368h-3.096l-1.656-11.232h3.312l0.576,8.28l0,0l4.176-8.28H319.824
		L319.824,137.64z M319.824,142.104c-0.144,0.36-0.216,0.721-0.288,1.152c-0.071,0.288-0.144,0.576-0.144,0.864
		c-0.072,0.288-0.072,0.504-0.072,0.792c0,0.863,0.145,1.584,0.504,2.231V142.104L319.824,142.104z M289.872,149.088v-2.376
		c0.216-0.072,0.433-0.145,0.648-0.288c0.359-0.216,0.576-0.504,0.72-0.792v-0.072h3.096c-0.504,0.937-1.08,1.656-1.728,2.232
		c-0.648,0.504-1.368,0.863-2.088,1.08C290.304,148.944,290.088,149.016,289.872,149.088L289.872,149.088z M289.872,144.048v-1.944
		h2.232c0.071-0.072,0.071-0.144,0.071-0.216s0-0.144,0-0.216c0-0.648-0.216-1.152-0.504-1.44c-0.359-0.288-0.72-0.432-1.151-0.432
		h-0.072c-0.072,0-0.072,0-0.072,0c-0.216,0-0.359,0-0.504,0v-2.376c0.288-0.072,0.648-0.072,1.008-0.072c0.217,0,0.36,0,0.504,0
		c0.145,0,0.288,0,0.433,0.072c0.864,0.072,1.584,0.432,2.304,1.08c0.648,0.576,1.008,1.584,1.008,2.952
		c0,0.359,0,0.647-0.071,1.008c0,0.288-0.072,0.72-0.145,1.08l-0.144,0.504H289.872L289.872,144.048z M307.585,141.096l-1.656,7.776
		h-3.024l1.512-6.841c0-0.071,0-0.216,0.072-0.287c0-0.145,0-0.288,0-0.433c0,0,0,0,0-0.072v-0.071c0-0.36-0.072-0.648-0.288-0.937
		s-0.647-0.359-1.296-0.359c-0.647,0-1.224,0.216-1.728,0.647c-0.576,0.433-0.937,1.08-1.152,1.944l-1.368,6.408h-2.952
		l2.376-11.232h2.881l-0.36,1.656h0.072c0.071-0.145,0.144-0.216,0.288-0.36c0.071-0.144,0.216-0.288,0.359-0.432
		c0.36-0.288,0.792-0.576,1.296-0.792s1.08-0.36,1.8-0.36c1.009,0,1.729,0.216,2.377,0.72c0.575,0.433,0.863,1.152,0.863,2.089
		c0,0.144,0,0.287,0,0.432C307.585,140.808,307.585,140.952,307.585,141.096L307.585,141.096z M289.872,137.424v2.376
		c-0.504,0.072-0.936,0.288-1.296,0.576c-0.432,0.432-0.792,1.008-1.008,1.728h2.304v1.944h-2.808
		c-0.072,0.144-0.072,0.216-0.072,0.36c0,0.144,0,0.287,0,0.432c0,0.072,0,0.144,0,0.216s0,0.072,0,0.145
		c0.072,0.432,0.216,0.792,0.504,1.151c0.288,0.288,0.864,0.504,1.584,0.504c0.072,0,0.145,0,0.216-0.071c0.072,0,0.145,0,0.217,0
		c0.144,0,0.216-0.072,0.359-0.072v2.376c-0.144,0-0.216,0-0.288,0c-0.359,0.072-0.647,0.072-1.008,0.072
		c-1.296,0-2.376-0.288-3.24-0.864c-0.863-0.648-1.296-1.656-1.296-3.168c0-0.36,0-0.648,0.072-1.008
		c0.072-0.288,0.072-0.721,0.216-1.08c0-0.288,0.145-0.648,0.288-1.152c0.145-0.504,0.432-1.008,0.72-1.512
		c0.504-0.721,1.152-1.44,2.017-2.088C288.072,137.784,288.864,137.496,289.872,137.424L289.872,137.424z M266.328,149.088v-2.376
		c0.216-0.072,0.433-0.145,0.648-0.288c0.288-0.216,0.576-0.504,0.72-0.792v-0.072h3.096c-0.504,0.937-1.08,1.656-1.728,2.232
		c-0.648,0.504-1.368,0.863-2.088,1.08C266.76,148.944,266.544,149.016,266.328,149.088L266.328,149.088z M266.328,144.048v-1.944
		h2.232c0-0.072,0.071-0.144,0.071-0.216s0-0.144,0-0.216c0-0.648-0.216-1.152-0.504-1.44c-0.359-0.288-0.72-0.432-1.151-0.432
		h-0.072c-0.072,0-0.072,0-0.072,0c-0.216,0-0.359,0-0.504,0v-2.376c0.288-0.072,0.648-0.072,1.008-0.072c0.145,0,0.36,0,0.504,0
		c0.145,0,0.288,0,0.433,0.072c0.864,0.072,1.584,0.432,2.231,1.08c0.721,0.576,1.08,1.584,1.08,2.952c0,0.359,0,0.647-0.071,1.008
		c0,0.288-0.072,0.72-0.145,1.08l-0.144,0.504H266.328L266.328,144.048z M283.104,141.024h-2.88c0,0,0,0,0-0.071l0,0
		c0-0.36-0.072-0.648-0.288-0.937s-0.648-0.432-1.368-0.432s-1.152,0.071-1.44,0.288c-0.288,0.144-0.504,0.359-0.575,0.575
		c0,0-0.072,0.072-0.072,0.145v0.072c0,0.071,0,0.071,0,0.071l0,0l-0.072,0.072l0,0c0.072,0.288,0.216,0.504,0.576,0.648
		c0.36,0.144,0.864,0.288,1.368,0.359c0.144,0.072,0.359,0.072,0.576,0.145c0.216,0,0.432,0.071,0.575,0.144
		c0.792,0.145,1.513,0.433,2.16,0.792c0.648,0.36,0.937,0.937,0.937,1.8c0,0.072,0,0.145,0,0.288c0,0.145,0,0.217-0.072,0.36
		c-0.216,1.008-0.648,1.8-1.296,2.376c-0.648,0.504-1.296,0.864-2.088,1.152c-0.433,0.071-0.864,0.216-1.225,0.216
		c-0.432,0.072-0.792,0.072-1.151,0.072l0,0h-0.072c-1.152,0-2.232-0.217-3.168-0.648c-0.937-0.432-1.44-1.224-1.44-2.448
		c0-0.071,0-0.216,0.072-0.359c0-0.145,0-0.288,0-0.433h3.096c-0.071,0.072-0.071,0.145-0.071,0.216c0,0.072,0,0.145,0,0.217
		c0,0.359,0.144,0.647,0.504,0.936c0.288,0.216,0.864,0.288,1.656,0.288c0.575,0,0.936-0.072,1.296-0.216
		c0.288-0.145,0.504-0.288,0.647-0.504c0-0.072,0.072-0.145,0.072-0.216c0.072-0.072,0.072-0.145,0.072-0.217h0.071
		c0-0.071,0-0.071,0-0.071v-0.072c0-0.288-0.216-0.504-0.575-0.648c-0.36-0.144-0.864-0.288-1.368-0.359
		c-0.216-0.072-0.36-0.072-0.576-0.145c-0.145,0-0.36-0.071-0.576-0.144c-0.72-0.145-1.439-0.433-2.088-0.792
		c-0.648-0.36-0.937-0.937-0.937-1.8c0-0.072,0-0.217,0-0.288c0.072-0.145,0.072-0.217,0.072-0.36
		c0.072-0.144,0.072-0.288,0.145-0.432c0.071-0.145,0.144-0.36,0.216-0.504c0.288-0.721,0.864-1.368,1.656-1.944
		s1.943-0.864,3.384-0.864c0.072,0,0.144,0,0.288,0c0.071,0,0.216,0,0.288,0c0.936,0.072,1.8,0.288,2.592,0.648
		c0.72,0.432,1.152,1.224,1.152,2.376c0,0.071,0,0.216,0,0.288c0,0.144-0.072,0.288-0.072,0.432V141.024L283.104,141.024z
		 M266.328,137.424v2.376c-0.504,0.072-0.936,0.288-1.296,0.576c-0.432,0.432-0.792,1.008-1.08,1.728h2.376v1.944h-2.88
		c0,0.144,0,0.216,0,0.36c0,0.144,0,0.287,0,0.432c0,0.072,0,0.144,0,0.216s0,0.072,0,0.145c0.072,0.432,0.216,0.792,0.504,1.151
		c0.288,0.288,0.792,0.504,1.584,0.504c0.072,0,0.145,0,0.216-0.071c0.072,0,0.145,0,0.217,0c0.144,0,0.216-0.072,0.359-0.072v2.376
		c-0.144,0-0.216,0-0.288,0c-0.359,0.072-0.72,0.072-1.008,0.072c-1.296,0-2.376-0.288-3.24-0.864
		c-0.863-0.648-1.296-1.656-1.296-3.168c0-0.36,0-0.648,0.072-1.008c0-0.288,0.072-0.721,0.144-1.08
		c0.072-0.288,0.217-0.648,0.36-1.152c0.145-0.504,0.432-1.008,0.72-1.512c0.504-0.721,1.152-1.44,2.017-2.088
		C264.456,137.784,265.32,137.496,266.328,137.424L266.328,137.424z M252.936,148.8v-2.592c0.863-0.216,1.512-0.648,2.088-1.44
		c0.72-1.008,1.224-2.088,1.512-3.312c0.072-0.072,0.072-0.072,0.072-0.145s0-0.072,0-0.144c0.144-0.433,0.144-0.792,0.216-1.152
		c0-0.288,0.072-0.576,0.072-0.864c0-1.008-0.216-1.728-0.648-2.088c-0.359-0.359-0.792-0.647-1.296-0.72c-0.144,0-0.288,0-0.432,0
		c-0.072-0.072-0.216-0.072-0.36-0.072h-1.224v-2.592h2.376c1.872,0,3.168,0.504,3.815,1.584c0.721,1.008,1.009,2.088,1.009,3.313
		c0,0.071,0,0.071,0,0.071l0,0c0,0.433,0,0.792-0.072,1.225c0,0.359-0.072,0.72-0.145,1.08c-0.071,0.359-0.216,0.792-0.288,1.151
		c-0.144,0.433-0.287,0.864-0.504,1.296c-0.575,1.368-1.439,2.593-2.592,3.744C255.6,148.08,254.376,148.656,252.936,148.8z
		 M234.72,145.56h3.096c-0.504,0.937-1.08,1.656-1.729,2.232c-0.647,0.504-1.367,0.863-2.088,1.08
		c-0.216,0.071-0.432,0.144-0.647,0.216v-2.376c0.216-0.072,0.432-0.145,0.647-0.288c0.36-0.216,0.576-0.504,0.721-0.792V145.56
		L234.72,145.56z M233.352,137.424c0.288-0.072,0.647-0.072,1.008-0.072c0.216,0,0.36,0,0.504,0s0.288,0,0.432,0.072
		c0.864,0.072,1.584,0.432,2.305,1.08c0.647,0.576,1.008,1.584,1.008,2.952c0,0.359,0,0.647-0.072,1.008
		c0,0.288-0.072,0.72-0.144,1.08l-0.145,0.504h-4.896v-1.944h2.304c0-0.072,0-0.144,0-0.216s0-0.144,0-0.216
		c0-0.648-0.216-1.152-0.504-1.44c-0.36-0.288-0.72-0.432-1.152-0.432h-0.071h-0.072c-0.216,0-0.36,0-0.504,0V137.424
		L233.352,137.424z M252.936,133.68v2.592h-1.8l-2.16,10.008h3.096c0.288,0,0.576-0.071,0.864-0.071v2.592
		c-0.36,0.072-0.648,0.072-1.008,0.072h-6.624l3.239-15.192H252.936z M233.352,149.088c-0.145,0-0.216,0-0.288,0
		c-0.36,0.072-0.648,0.072-1.008,0.072c-1.296,0-2.376-0.288-3.24-0.864c-0.864-0.648-1.296-1.656-1.296-3.168
		c0-0.36,0-0.648,0.071-1.008c0.072-0.288,0.072-0.721,0.217-1.08c0-0.288,0.144-0.648,0.288-1.152
		c0.144-0.504,0.432-1.008,0.72-1.512c0.504-0.721,1.151-1.44,2.016-2.088c0.721-0.504,1.513-0.792,2.521-0.864v2.376
		c-0.504,0.072-0.937,0.288-1.225,0.576c-0.504,0.432-0.863,1.008-1.08,1.728h2.305v1.944h-2.809
		c-0.071,0.144-0.071,0.216-0.071,0.36c0,0.144,0,0.287,0,0.432c0,0.072,0,0.144,0,0.216s0,0.072,0,0.145
		c0.071,0.432,0.216,0.792,0.504,1.151c0.288,0.288,0.863,0.504,1.584,0.504c0.071,0,0.144,0,0.216-0.071c0.072,0,0.144,0,0.216,0
		c0.145,0,0.216-0.072,0.36-0.072V149.088L233.352,149.088z M84.672,174.072v-3.312l1.656-7.92h3.024l-2.448,11.231H84.672
		L84.672,174.072z M84.672,161.112v-2.376c0.072,0,0.145,0,0.217,0c0.216,0,0.359,0,0.504,0l-0.504,2.376H84.672L84.672,161.112z
		 M89.568,161.472h-2.952l0.648-2.736h2.951L89.568,161.472z M84.672,158.736v2.376h-0.647c-0.433,0-0.72,0.145-0.864,0.288
		c-0.144,0.145-0.288,0.36-0.36,0.721c0,0.071,0,0.071,0,0.144s0,0.072-0.071,0.145l-0.072,0.432H84.6l-0.433,2.088h-1.943
		l-1.944,9.144h-1.656v-6.119l0.648-3.024h-0.648v-2.088h1.08l0.145-0.937c0.288-1.151,0.792-1.943,1.439-2.447
		c0.72-0.504,1.584-0.721,2.592-0.721C84.24,158.736,84.456,158.736,84.672,158.736L84.672,158.736z M84.672,170.76l-0.72,3.312
		h0.72V170.76L84.672,170.76z M78.624,159.24l1.296-1.008h-1.296V159.24z M78.624,158.232v1.008l-2.52,2.089h-2.088l2.592-3.097
		H78.624L78.624,158.232z M78.624,162.84v2.088h-1.008l0.432-2.088H78.624L78.624,162.84z M78.624,167.952v6.119h-1.296
		L78.624,167.952L78.624,167.952z M71.208,174.072v-1.008l2.232-10.224h2.952l-2.376,11.231H71.208L71.208,174.072z M71.208,163.848
		l0.216-1.008h-0.216V163.848z M71.208,162.84v1.008l-0.216,1.08h-1.8l-1.368,6.12c0,0.144,0,0.216,0,0.288
		s-0.072,0.144-0.072,0.216c0,0.144,0.072,0.288,0.288,0.36c0.145,0.071,0.433,0.071,0.864,0.071c0.072,0,0.216,0,0.288,0
		c0.144,0,0.216,0,0.36,0l-0.505,2.16c-0.216,0.072-0.504,0.072-0.72,0.072s-0.432,0-0.72,0h-0.36c-1.008,0-1.728-0.145-2.088-0.432
		c-0.36-0.288-0.504-0.648-0.504-1.152c0-0.145,0-0.288,0-0.432c0-0.145,0.072-0.288,0.072-0.433l1.439-6.84h-1.512l0.432-2.088
		h1.584l0.648-3.096h2.952l-0.648,3.096H71.208L71.208,162.84z M71.208,173.064l-0.216,1.008h0.216V173.064L71.208,173.064z
		 M45.072,174.288v-2.376c0.216-0.072,0.504-0.145,0.72-0.288c0.288-0.216,0.504-0.504,0.721-0.792v-0.072h3.023
		c-0.432,0.936-1.008,1.656-1.656,2.232c-0.72,0.504-1.367,0.863-2.088,1.079C45.576,174.144,45.288,174.216,45.072,174.288
		L45.072,174.288z M45.072,169.248v-1.944h2.304c0-0.072,0-0.144,0-0.216s0-0.145,0-0.216c0-0.648-0.144-1.152-0.504-1.44
		c-0.359-0.288-0.72-0.432-1.08-0.432c-0.071,0-0.071,0-0.144,0c0,0,0,0-0.072,0c-0.144,0-0.36,0-0.504,0v-2.376
		c0.36-0.072,0.72-0.072,1.08-0.072c0.144,0,0.288,0,0.432,0c0.145,0,0.36,0,0.504,0.072c0.792,0.144,1.584,0.504,2.232,1.08
		c0.72,0.575,1.008,1.584,1.008,3.023c0,0.288,0,0.576,0,0.937c-0.072,0.359-0.144,0.72-0.216,1.08l-0.145,0.504H45.072
		L45.072,169.248z M62.784,166.296l-1.656,7.775h-2.952l1.44-6.84c0.072-0.071,0.072-0.144,0.072-0.288
		c0.071-0.144,0.071-0.288,0.071-0.359c0-0.072,0-0.072,0-0.145v-0.071c0-0.36-0.144-0.648-0.359-0.937
		c-0.145-0.288-0.576-0.36-1.225-0.36c-0.647,0-1.224,0.217-1.8,0.648s-0.936,1.08-1.08,1.944l-1.367,6.407h-2.952l2.376-11.231
		h2.808l-0.288,1.656l0,0c0.072-0.145,0.216-0.217,0.288-0.36c0.145-0.144,0.288-0.288,0.432-0.432
		c0.288-0.288,0.721-0.576,1.225-0.792c0.504-0.217,1.151-0.36,1.872-0.36c0.936,0,1.728,0.216,2.304,0.72
		c0.576,0.433,0.937,1.152,0.937,2.088c0,0.145-0.072,0.288-0.072,0.433C62.856,166.008,62.784,166.152,62.784,166.296
		L62.784,166.296z M45.072,162.624V165c-0.432,0.071-0.864,0.288-1.224,0.576c-0.504,0.432-0.864,1.008-1.08,1.728h2.304v1.944
		h-2.808c0,0.144,0,0.216,0,0.359c-0.072,0.145-0.072,0.288-0.072,0.433c0,0.071,0,0.144,0.072,0.216c0,0.072,0,0.144,0,0.144
		c0,0.433,0.216,0.792,0.504,1.152c0.288,0.288,0.792,0.504,1.584,0.504c0.071,0,0.144,0,0.216,0
		c0.072-0.072,0.144-0.072,0.216-0.072s0.216,0,0.288-0.071v2.376c-0.072,0-0.216,0-0.288,0c-0.288,0.071-0.647,0.071-0.936,0.071
		c-1.368,0-2.448-0.288-3.313-0.863c-0.864-0.576-1.296-1.656-1.296-3.168c0-0.288,0.072-0.648,0.072-1.009
		c0.071-0.287,0.144-0.647,0.216-1.08c0.072-0.287,0.144-0.647,0.36-1.151c0.144-0.504,0.359-0.937,0.72-1.512
		c0.432-0.721,1.151-1.44,2.016-2.089C43.272,163.056,44.064,162.696,45.072,162.624L45.072,162.624z M33.264,163.848h-3.168
		c0-0.144,0-0.288-0.072-0.432c0-0.216,0-0.36-0.072-0.576c-0.144-0.36-0.36-0.792-0.792-1.08c-0.36-0.36-1.008-0.504-1.872-0.504
		c-0.288,0-0.576,0.072-0.936,0.144c-0.36,0.072-0.721,0.217-1.08,0.433c-0.576,0.288-1.08,0.863-1.656,1.584
		c-0.504,0.792-0.936,1.8-1.224,3.168c-0.072,0.288-0.145,0.576-0.145,0.936c-0.072,0.288-0.072,0.576-0.072,0.864
		c0,1.008,0.217,1.8,0.648,2.448c0.504,0.576,1.224,0.936,2.232,0.936c0.863,0,1.655-0.216,2.376-0.72
		c0.647-0.504,1.224-1.224,1.584-2.16h3.168c-0.648,1.656-1.656,3.024-2.952,4.032c-1.296,1.08-2.952,1.584-4.824,1.584
		c-1.656,0-3.024-0.504-4.032-1.368c-1.008-0.936-1.512-2.304-1.512-4.176c0-0.36,0-0.721,0.072-1.152
		c0.071-0.432,0.144-0.864,0.216-1.296c0.576-2.664,1.656-4.608,3.312-5.976c1.656-1.368,3.456-2.017,5.4-2.017
		c1.728,0,3.024,0.36,3.888,1.152c0.792,0.792,1.296,1.656,1.513,2.592c0,0.145,0,0.288,0.071,0.504c0,0.145,0,0.288,0,0.433
		c0,0.144,0,0.216,0,0.359C33.336,163.632,33.264,163.776,33.264,163.848L33.264,163.848L33.264,163.848z M38.736,162.84
		l-2.376,11.231h-3.024l2.448-11.231H38.736L38.736,162.84z M39.024,161.472H36l0.648-2.736H39.6L39.024,161.472z"/>
	<path fill="#FFFFFF" d="M254.808,174.288v-2.448c0.575-0.072,1.008-0.36,1.367-0.72c0.505-0.504,0.864-1.009,1.08-1.656
		c0.072-0.145,0.145-0.36,0.145-0.504c0.072-0.145,0.144-0.36,0.144-0.504l0,0c0-0.145,0.072-0.217,0.072-0.36s0-0.288,0-0.432
		c0.072-0.072,0.072-0.145,0.072-0.217c0-0.071,0-0.144,0-0.144c0-0.648-0.145-1.152-0.433-1.584s-0.863-0.648-1.728-0.648
		c-0.216,0-0.504,0-0.72,0.072v-2.448c0.288-0.071,0.575-0.144,0.863-0.144c0.072,0,0.145,0,0.217,0c0.071,0,0.144,0,0.216,0
		c1.296,0,2.376,0.36,3.312,1.08c0.864,0.647,1.368,1.8,1.368,3.24c0,0.288,0,0.504-0.072,0.792c0,0.288-0.071,0.504-0.144,0.792
		l0,0c-0.36,1.943-1.224,3.456-2.521,4.392C257.04,173.568,255.96,174.072,254.808,174.288z M254.808,162.696v2.448
		c-0.504,0.072-1.009,0.288-1.296,0.648c-0.505,0.504-0.864,1.08-1.08,1.655c-0.072,0.217-0.145,0.36-0.217,0.576
		c0,0.145-0.071,0.288-0.071,0.433c-0.072,0.216-0.072,0.432-0.145,0.647c0,0.216,0,0.433,0,0.648c0,0.504,0.145,1.08,0.433,1.512
		s0.863,0.648,1.655,0.648c0.288,0,0.504,0,0.721-0.072v2.448c-0.288,0-0.576,0.071-0.864,0.071c-0.072,0-0.145,0-0.216,0
		c0,0-0.072,0-0.145,0c-1.296,0-2.447-0.288-3.312-1.008c-0.937-0.72-1.368-1.8-1.368-3.24c0-0.288,0-0.504,0-0.792
		c0.072-0.288,0.144-0.575,0.144-0.863c0.433-1.944,1.297-3.385,2.521-4.32C252.576,163.344,253.656,162.84,254.808,162.696
		L254.808,162.696z M224.064,178.464v-2.448c0.072-0.072,0.216-0.072,0.288-0.144c0.432-0.433,0.792-1.08,1.008-2.017l0.288-1.368
		h-0.072c-0.288,0.433-0.72,0.792-1.224,1.152c-0.145,0.072-0.217,0.145-0.288,0.145v-2.16c0.576-0.145,1.008-0.433,1.368-0.864
		c0.432-0.576,0.792-1.224,1.008-1.944c0-0.071,0-0.144,0-0.216c0.072-0.072,0.072-0.144,0.072-0.216
		c0.071-0.145,0.071-0.36,0.071-0.504c0-0.216,0-0.36,0-0.504c0-0.648-0.144-1.225-0.432-1.656c-0.36-0.432-0.792-0.576-1.512-0.576
		c-0.145,0-0.288,0-0.433,0c-0.072,0-0.072,0-0.144,0.072v-2.664c0.072,0,0.144,0,0.216,0s0.144,0,0.216,0
		c0.792,0,1.368,0.144,1.729,0.36c0.432,0.288,0.72,0.575,0.936,0.863c0.072,0.145,0.072,0.288,0.145,0.433
		c0,0.071,0.071,0.216,0.071,0.288h0.072l0.36-1.656h2.808l-2.232,10.656c-0.071,0.288-0.144,0.575-0.216,0.936
		c-0.071,0.288-0.216,0.576-0.359,0.937c-0.36,0.863-1.009,1.584-1.872,2.304C225.432,178.031,224.784,178.248,224.064,178.464
		L224.064,178.464z M236.304,162.84l-2.376,11.231h-3.024l2.448-11.231H236.304L236.304,162.84z M236.592,161.472h-2.951
		l0.575-2.736h2.952L236.592,161.472L236.592,161.472z M244.296,169.968h3.024c-0.072,0.288-0.216,0.576-0.36,0.936
		c-0.144,0.36-0.432,0.721-0.72,1.08c-0.432,0.648-1.08,1.152-1.872,1.656c-0.864,0.504-1.872,0.72-3.168,0.72
		c-1.656,0-2.736-0.359-3.312-1.224c-0.576-0.792-0.864-1.728-0.864-2.736c0-0.288,0-0.504,0.072-0.792
		c0-0.288,0.071-0.575,0.144-0.792c0.36-1.872,1.08-3.312,2.232-4.536c1.08-1.151,2.592-1.728,4.464-1.728c0.216,0,0.432,0,0.647,0
		c0.216,0.072,0.504,0.072,0.721,0.144c0.647,0.145,1.296,0.505,1.871,1.009c0.576,0.504,0.864,1.367,0.864,2.447
		c0,0.072,0,0.217,0,0.36c0,0.072,0,0.216,0,0.36h-3.023c0-0.072,0-0.072,0-0.072s0,0,0-0.072s0-0.144,0-0.216
		s-0.072-0.144-0.072-0.288c-0.072-0.288-0.145-0.576-0.36-0.792c-0.216-0.288-0.576-0.432-1.008-0.36c-0.072,0-0.072,0-0.072,0
		h-0.071c-0.792,0-1.368,0.217-1.801,0.721c-0.504,0.504-0.792,1.008-1.008,1.655c-0.072,0.145-0.144,0.288-0.144,0.433
		c-0.072,0.144-0.072,0.288-0.145,0.432v0.072c0,0.072,0,0.072,0,0.144c-0.071,0.145-0.071,0.36-0.144,0.576
		c0,0.216,0,0.36-0.072,0.576c0,0.072,0,0.145,0,0.216c0,0,0,0.072,0,0.145c0,0.504,0.145,0.936,0.36,1.368
		c0.216,0.359,0.72,0.575,1.368,0.575c0.504,0,0.863-0.144,1.224-0.359s0.576-0.433,0.792-0.721
		c0.144-0.216,0.216-0.359,0.288-0.504C244.224,170.256,244.296,170.112,244.296,169.968L244.296,169.968z M224.064,162.552v2.664
		c-0.072,0-0.216,0-0.288,0.072c-0.432,0.144-0.864,0.504-1.224,1.008c-0.433,0.504-0.721,1.296-0.937,2.231l0,0
		c0,0.072,0,0.217-0.072,0.288c0,0.072,0,0.145,0,0.288c0,0.072,0,0.145-0.071,0.216c0,0.072,0,0.217,0,0.288
		c0,0.576,0.144,1.008,0.432,1.44c0.288,0.432,0.72,0.647,1.368,0.647c0.288,0,0.576-0.071,0.792-0.071v2.16
		c-0.504,0.216-1.08,0.359-1.872,0.359c-1.08,0-2.017-0.288-2.736-0.936c-0.72-0.648-1.08-1.656-1.08-3.024
		c0-0.288,0.072-0.576,0.072-0.864c0.072-0.288,0.072-0.647,0.144-0.936c0.433-1.872,1.08-3.24,2.16-4.176
		C221.76,163.2,222.84,162.696,224.064,162.552L224.064,162.552L224.064,162.552z M224.064,176.016v2.448
		c-0.72,0.144-1.512,0.216-2.521,0.216c-1.008,0-2.016-0.216-2.88-0.647c-0.864-0.505-1.296-1.225-1.296-2.232
		c0-0.072,0-0.145,0-0.216c0-0.145,0-0.216,0-0.288h3.24c0,0.288,0.072,0.576,0.288,0.792c0.144,0.216,0.647,0.36,1.512,0.36
		C223.056,176.448,223.632,176.304,224.064,176.016L224.064,176.016z M211.248,174.288v-2.448c0.576-0.072,1.008-0.36,1.368-0.72
		c0.504-0.504,0.864-1.009,1.08-1.656c0.072-0.145,0.144-0.36,0.216-0.504c0-0.145,0.072-0.36,0.072-0.504l0,0
		c0.072-0.145,0.072-0.217,0.072-0.36s0.071-0.288,0.071-0.432c0-0.072,0-0.145,0-0.217c0-0.071,0-0.144,0-0.144
		c0-0.648-0.144-1.152-0.432-1.584s-0.864-0.648-1.728-0.648c-0.217,0-0.505,0-0.721,0.072v-2.448
		c0.288-0.071,0.576-0.144,0.864-0.144c0.072,0,0.144,0,0.216,0s0.145,0,0.216,0c1.296,0,2.376,0.36,3.313,1.08
		c0.936,0.647,1.368,1.8,1.368,3.24c0,0.288,0,0.504-0.072,0.792c0,0.288-0.072,0.504-0.072,0.792l0,0
		c-0.432,1.943-1.296,3.456-2.592,4.392C213.48,173.568,212.4,174.072,211.248,174.288L211.248,174.288z M213.696,161.328h-2.16
		l2.664-3.097h3.24L213.696,161.328z M211.248,162.696v2.448c-0.504,0.072-0.936,0.288-1.296,0.648
		c-0.504,0.504-0.792,1.08-1.008,1.655c-0.072,0.217-0.145,0.36-0.216,0.576c0,0.145-0.072,0.288-0.072,0.433
		c-0.072,0.216-0.072,0.432-0.144,0.647c0,0.216,0,0.433,0,0.648c0,0.504,0.144,1.08,0.432,1.512
		c0.216,0.432,0.792,0.648,1.584,0.648c0.288,0,0.504,0,0.72-0.072v2.448c-0.288,0-0.576,0.071-0.864,0.071
		c-0.071,0-0.071,0-0.144,0s-0.144,0-0.216,0c-1.225,0-2.376-0.288-3.24-1.008c-0.792-0.647-1.296-1.512-1.368-2.735v-1.009
		c0-0.071,0-0.216,0.072-0.288c0-0.287,0.072-0.575,0.072-0.863c0.432-1.944,1.296-3.385,2.52-4.32
		C209.16,163.344,210.168,162.84,211.248,162.696L211.248,162.696z M205.416,158.952v-0.072l0,0V158.952z M205.416,158.88v0.072
		l-3.24,15.119h-2.951l3.239-15.191H205.416L205.416,158.88z M205.416,169.608c0,0.145,0,0.36,0,0.504c0,0.145,0,0.36,0,0.505
		V169.608L205.416,169.608z M192.528,174.288v-2.448c0.504-0.072,1.008-0.36,1.296-0.72c0.504-0.504,0.864-1.009,1.08-1.656
		c0.072-0.145,0.144-0.36,0.216-0.504c0.072-0.145,0.072-0.36,0.145-0.504l0,0c0-0.145,0-0.217,0.071-0.36c0-0.144,0-0.288,0-0.432
		c0-0.072,0-0.145,0-0.217c0-0.071,0-0.144,0-0.144c0-0.648-0.144-1.152-0.432-1.584s-0.792-0.648-1.656-0.648
		c-0.288,0-0.504,0-0.72,0.072v-2.448c0.288-0.071,0.576-0.144,0.864-0.144c0.071,0,0.144,0,0.216,0c0,0,0.072,0,0.144,0
		c1.296,0,2.448,0.36,3.313,1.08c0.936,0.647,1.368,1.8,1.368,3.24c0,0.288,0,0.504,0,0.792s-0.072,0.504-0.145,0.792l0,0
		c-0.432,1.943-1.224,3.456-2.52,4.392C194.76,173.568,193.68,174.072,192.528,174.288z M192.528,162.696v2.448
		c-0.576,0.072-1.008,0.288-1.368,0.648c-0.504,0.504-0.864,1.08-1.08,1.655c-0.072,0.217-0.072,0.36-0.144,0.576
		c-0.072,0.145-0.072,0.288-0.145,0.433c0,0.216-0.071,0.432-0.071,0.647c-0.072,0.216-0.072,0.433-0.072,0.648
		c0,0.504,0.144,1.08,0.432,1.512c0.36,0.432,0.864,0.648,1.729,0.648c0.216,0,0.504,0,0.72-0.072v2.448
		c-0.288,0-0.576,0.071-0.864,0.071c-0.072,0-0.144,0-0.216,0s-0.144,0-0.216,0c-1.296,0-2.376-0.288-3.313-1.008
		c-0.863-0.72-1.367-1.8-1.367-3.24c0-0.288,0.071-0.504,0.071-0.792c0.072-0.288,0.072-0.575,0.145-0.863
		c0.432-1.944,1.224-3.385,2.52-4.32C190.296,163.344,191.376,162.84,192.528,162.696L192.528,162.696z M155.592,174.288v-2.376
		c0.288-0.072,0.505-0.145,0.721-0.288c0.288-0.216,0.576-0.504,0.72-0.792v-0.072h3.096c-0.504,0.936-1.08,1.656-1.728,2.232
		c-0.648,0.504-1.368,0.863-2.088,1.079C156.096,174.144,155.88,174.216,155.592,174.288L155.592,174.288z M155.592,169.248v-1.944
		h2.305c0-0.072,0.071-0.144,0.071-0.216s0-0.145,0-0.216c0-0.648-0.216-1.152-0.575-1.44c-0.288-0.288-0.648-0.432-1.08-0.432
		c-0.072,0-0.072,0-0.072,0c-0.072,0-0.072,0-0.072,0c-0.216,0-0.359,0-0.576,0v-2.376c0.36-0.072,0.721-0.072,1.08-0.072
		c0.145,0,0.36,0,0.504,0c0.145,0,0.288,0,0.433,0.072c0.792,0.144,1.584,0.504,2.231,1.08c0.721,0.575,1.08,1.584,1.08,3.023
		c0,0.288-0.071,0.576-0.071,0.937c-0.072,0.359-0.072,0.72-0.217,1.08l-0.071,0.504H155.592L155.592,169.248z M169.056,169.968
		h3.023c-0.072,0.288-0.216,0.576-0.359,0.936c-0.217,0.36-0.433,0.721-0.721,1.08c-0.432,0.648-1.08,1.152-1.943,1.656
		c-0.792,0.504-1.801,0.72-3.097,0.72c-1.655,0-2.735-0.359-3.312-1.224c-0.576-0.792-0.864-1.728-0.864-2.736
		c0-0.288,0-0.504,0.072-0.792c0-0.288,0.072-0.575,0.072-0.792c0.432-1.872,1.151-3.312,2.231-4.536
		c1.152-1.151,2.664-1.728,4.536-1.728c0.216,0,0.432,0,0.648,0c0.216,0.072,0.432,0.072,0.72,0.144
		c0.647,0.145,1.296,0.505,1.872,1.009s0.863,1.367,0.863,2.447c0,0.072,0,0.217,0,0.36c0,0.072,0,0.216-0.071,0.36h-2.952
		c0-0.072,0-0.072,0-0.072s0,0,0-0.072s0-0.144,0-0.216c-0.072-0.072-0.072-0.144-0.072-0.288c-0.072-0.288-0.144-0.576-0.359-0.792
		c-0.217-0.288-0.576-0.432-1.08-0.36l0,0c-0.072,0-0.072,0-0.072,0c-0.792,0-1.368,0.217-1.8,0.721
		c-0.504,0.504-0.792,1.008-1.009,1.655c-0.071,0.145-0.144,0.288-0.144,0.433c-0.072,0.144-0.072,0.288-0.144,0.432v0.072
		c0,0.072,0,0.072,0,0.144c-0.072,0.145-0.072,0.36-0.145,0.576c0,0.216,0,0.36-0.072,0.576c0,0.072,0,0.145,0,0.216
		c0,0,0,0.072,0,0.145c0,0.504,0.145,0.936,0.36,1.368c0.216,0.359,0.72,0.575,1.368,0.575c0.504,0,0.864-0.144,1.224-0.359
		c0.288-0.216,0.576-0.433,0.792-0.721c0.145-0.216,0.216-0.359,0.288-0.504C168.984,170.256,169.056,170.112,169.056,169.968
		L169.056,169.968L169.056,169.968z M185.112,166.296l-1.656,7.775h-2.952l1.44-6.84c0.072-0.071,0.072-0.144,0.072-0.288
		c0-0.144,0.071-0.288,0.071-0.359c0-0.072,0-0.072,0-0.145v-0.071c0-0.36-0.144-0.648-0.359-0.937
		c-0.145-0.288-0.576-0.36-1.225-0.36c-0.647,0-1.224,0.217-1.8,0.648s-0.936,1.08-1.08,1.944l-1.368,6.407h-2.951l2.376-11.231
		h2.808l-0.36,1.656h0.072c0.072-0.145,0.216-0.217,0.288-0.36c0.144-0.144,0.288-0.288,0.432-0.432
		c0.288-0.288,0.721-0.576,1.225-0.792c0.504-0.217,1.151-0.36,1.872-0.36c0.936,0,1.728,0.216,2.304,0.72
		c0.576,0.433,0.864,1.152,0.864,2.088c0,0.145,0,0.288,0,0.433C185.184,166.008,185.112,166.152,185.112,166.296L185.112,166.296z
		 M155.592,162.624V165c-0.432,0.071-0.863,0.288-1.224,0.576c-0.432,0.432-0.792,1.008-1.08,1.728h2.304v1.944h-2.808
		c0,0.144,0,0.216,0,0.359c0,0.145,0,0.288,0,0.433c0,0.071,0,0.144,0,0.216s0,0.144,0,0.144c0.072,0.433,0.216,0.792,0.504,1.152
		c0.288,0.288,0.792,0.504,1.584,0.504c0.072,0,0.145,0,0.216,0c0.072-0.072,0.145-0.072,0.217-0.072c0.144,0,0.216,0,0.287-0.071
		v2.376c-0.071,0-0.144,0-0.287,0c-0.288,0.071-0.648,0.071-0.937,0.071c-1.296,0-2.304-0.288-3.168-0.792v-8.063
		c0.432-0.72,1.08-1.368,1.944-2.017C153.792,163.056,154.656,162.696,155.592,162.624L155.592,162.624z M151.2,161.544v-2.664
		h1.368l-0.576,2.664H151.2z M151.2,158.88v2.664h-3.816l-2.663,12.527h-3.168l2.663-12.527h-4.607l0.576-2.664H151.2L151.2,158.88z
		 M151.2,165.504l-0.072,0.072c-0.288,0.575-0.576,1.008-0.72,1.512s-0.288,0.864-0.36,1.151c-0.071,0.433-0.144,0.792-0.144,1.08
		c-0.072,0.36-0.072,0.721-0.072,1.009c0,1.512,0.433,2.592,1.296,3.168c0,0,0.072,0,0.072,0.071V165.504L151.2,165.504z
		 M126.288,174.288v-2.376c0.216-0.072,0.504-0.145,0.72-0.288c0.288-0.216,0.505-0.504,0.721-0.792v-0.072h3.023
		c-0.432,0.936-1.008,1.656-1.655,2.232c-0.721,0.504-1.368,0.863-2.089,1.079C126.792,174.144,126.504,174.216,126.288,174.288
		L126.288,174.288z M126.288,169.248v-1.944h2.304c0-0.072,0-0.144,0-0.216s0-0.145,0-0.216c0-0.648-0.144-1.152-0.504-1.44
		c-0.359-0.288-0.72-0.432-1.151-0.432c0,0,0,0-0.072,0h-0.072c-0.144,0-0.359,0-0.504,0v-2.376c0.36-0.072,0.72-0.072,1.08-0.072
		c0.145,0,0.288,0,0.432,0c0.145,0,0.36,0,0.505,0.072c0.792,0.144,1.512,0.504,2.231,1.08c0.72,0.575,1.008,1.584,1.008,3.023
		c0,0.288,0,0.576,0,0.937c-0.071,0.359-0.144,0.72-0.216,1.08l-0.144,0.504H126.288z M126.288,162.624V165
		c-0.504,0.071-0.864,0.288-1.224,0.576c-0.504,0.432-0.864,1.008-1.08,1.728h2.304v1.944h-2.808c0,0.144,0,0.216-0.072,0.359
		c0,0.145,0,0.288,0,0.433c0,0.071,0,0.144,0,0.216c0.072,0.072,0.072,0.144,0.072,0.144c0,0.433,0.216,0.792,0.504,1.152
		c0.288,0.288,0.792,0.504,1.584,0.504c0.072,0,0.144,0,0.216,0c0.072-0.072,0.145-0.072,0.216-0.072c0.072,0,0.216,0,0.288-0.071
		v2.376c-0.072,0-0.216,0-0.288,0c-0.359,0.071-0.647,0.071-0.936,0.071c-1.368,0-2.448-0.288-3.313-0.863
		c-0.863-0.576-1.296-1.656-1.296-3.168c0-0.288,0.072-0.648,0.072-1.009c0.072-0.287,0.144-0.647,0.216-1.08
		c0.072-0.287,0.145-0.647,0.36-1.151c0.144-0.504,0.359-0.937,0.72-1.512c0.432-0.721,1.08-1.44,2.016-2.089
		C124.488,163.056,125.28,162.696,126.288,162.624L126.288,162.624z M107.856,174.288v-2.448c0.576-0.072,1.008-0.36,1.368-0.72
		c0.432-0.504,0.792-1.009,1.08-1.656c0.071-0.145,0.071-0.36,0.144-0.504c0.072-0.145,0.072-0.36,0.144-0.504l0,0
		c0-0.145,0-0.217,0.072-0.36c0-0.144,0-0.288,0-0.432c0-0.072,0.072-0.145,0.072-0.217c0-0.071,0-0.144,0-0.144
		c0-0.648-0.216-1.152-0.504-1.584s-0.792-0.648-1.656-0.648c-0.288,0-0.504,0-0.72,0.072v-2.448
		c0.288-0.071,0.576-0.144,0.864-0.144c0.071,0,0.144,0,0.216,0c0.071,0,0.071,0,0.144,0c1.296,0,2.448,0.36,3.313,1.08
		c0.936,0.647,1.367,1.8,1.367,3.24c0,0.288,0,0.504,0,0.792s-0.071,0.504-0.144,0.792l0,0c-0.432,1.943-1.224,3.456-2.52,4.392
		C110.088,173.568,109.008,174.072,107.856,174.288z M97.344,169.968h3.023c-0.072,0.288-0.216,0.576-0.36,0.936
		c-0.216,0.36-0.432,0.721-0.72,1.08c-0.504,0.648-1.08,1.152-1.943,1.656c-0.792,0.504-1.801,0.72-3.097,0.72
		c-1.656,0-2.735-0.359-3.312-1.224c-0.576-0.792-0.864-1.728-0.864-2.736c0-0.288,0-0.504,0.072-0.792
		c0-0.288,0.071-0.575,0.071-0.792c0.433-1.872,1.152-3.312,2.232-4.536c1.152-1.151,2.592-1.728,4.536-1.728
		c0.216,0,0.432,0,0.647,0c0.217,0.072,0.433,0.072,0.648,0.144c0.72,0.145,1.368,0.505,1.944,1.009
		c0.575,0.504,0.863,1.367,0.863,2.447c0,0.072,0,0.217,0,0.36c0,0.072,0,0.216-0.071,0.36h-2.952c0-0.072,0-0.072,0-0.072
		s0,0,0-0.072s0-0.144-0.072-0.216c0-0.072,0-0.144,0-0.288c-0.072-0.288-0.216-0.576-0.36-0.792
		c-0.216-0.288-0.575-0.432-1.079-0.36l0,0c-0.072,0-0.072,0-0.145,0c-0.72,0-1.296,0.217-1.8,0.721
		c-0.433,0.504-0.72,1.008-0.937,1.655c-0.071,0.145-0.144,0.288-0.144,0.433c-0.072,0.144-0.072,0.288-0.145,0.432v0.072
		c0,0.072,0,0.072,0,0.144c-0.071,0.145-0.144,0.36-0.144,0.576s-0.072,0.36-0.072,0.576c0,0.072,0,0.145,0,0.216
		c0,0,0,0.072,0,0.145c0,0.504,0.145,0.936,0.36,1.368c0.216,0.359,0.648,0.575,1.368,0.575c0.504,0,0.864-0.144,1.224-0.359
		c0.288-0.216,0.576-0.433,0.792-0.721c0.072-0.216,0.216-0.359,0.288-0.504C97.272,170.256,97.344,170.112,97.344,169.968
		L97.344,169.968L97.344,169.968z M107.856,162.696v2.448c-0.576,0.072-1.008,0.288-1.368,0.648c-0.504,0.504-0.864,1.08-1.08,1.655
		c-0.072,0.217-0.072,0.36-0.144,0.576c-0.072,0.145-0.072,0.288-0.145,0.433c0,0.216-0.072,0.432-0.072,0.647
		s-0.071,0.433-0.071,0.648c0,0.504,0.144,1.08,0.504,1.512c0.288,0.432,0.792,0.648,1.656,0.648c0.216,0,0.504,0,0.72-0.072v2.448
		c-0.288,0-0.576,0.071-0.864,0.071c-0.072,0-0.144,0-0.216,0s-0.145,0-0.216,0c-1.296,0-2.376-0.288-3.313-1.008
		c-0.864-0.72-1.368-1.8-1.368-3.24c0-0.288,0.072-0.504,0.072-0.792c0.072-0.288,0.072-0.575,0.145-0.863
		c0.432-1.944,1.224-3.385,2.52-4.32C105.624,163.344,106.704,162.84,107.856,162.696z"/>
	<path fill="#FFFFFF" d="M385.776,117.192v-2.088L390.6,91.56c-1.296,1.512-2.448,2.809-3.601,3.744
		c-0.432,0.432-0.791,0.72-1.224,1.08v-8.28c1.224-0.432,2.376-1.08,3.456-2.016c1.944-1.729,3.672-5.4,5.112-11.017
		c0.359-0.936,0.576-1.943,0.72-3.168c0.145-1.151,0.216-2.376,0.216-3.6c0-2.304-0.432-4.392-1.439-6.264
		c-0.937-1.872-2.809-2.809-5.544-2.809c-0.937,0-1.729,0.072-2.521,0.36V47.784c2.376,0.071,4.464,0.792,6.336,2.088
		c1.944,1.367,3.528,2.808,4.824,4.464c0.288,0.288,0.504,0.576,0.648,0.864c0.216,0.287,0.432,0.575,0.575,0.936l1.584-6.12h18.145
		l-14.4,67.176H385.776z M385.776,47.784v11.808c-1.368,0.432-2.592,1.296-3.6,2.52c-1.513,1.944-2.736,4.104-3.601,6.48
		c-0.432,1.152-0.792,2.304-1.008,3.456c-0.288,1.08-0.432,2.088-0.576,3.023v-0.144c-0.144,0.504-0.288,1.008-0.359,1.512
		c-0.072,0.576-0.145,1.008-0.217,1.44c-0.071,0.576-0.144,1.008-0.144,1.512c-0.072,0.504-0.072,1.008-0.072,1.512
		c0,2.089,0.433,3.889,1.296,5.473c0.864,1.512,2.448,2.304,4.752,2.304c1.225,0,2.448-0.216,3.528-0.576v8.28
		c-0.72,0.504-1.368,1.008-2.088,1.368c-1.44,0.792-2.952,1.368-4.536,1.656c-1.512,0.359-3.24,0.504-5.184,0.504
		c-5.76,0-9.792-1.368-12.024-4.032c-2.16-2.592-3.528-5.544-4.032-8.784c-0.216-1.152-0.359-2.304-0.432-3.456
		c-0.072-1.224-0.072-2.304-0.072-3.312v-0.145c0.072-1.296,0.217-2.736,0.36-4.176c0.216-1.512,0.432-2.952,0.792-4.536
		c1.368-5.76,4.032-11.088,8.063-15.912c4.032-4.896,10.225-7.488,18.721-7.775C385.488,47.784,385.633,47.784,385.776,47.784
		L385.776,47.784z M385.776,115.104v2.088h-0.432L385.776,115.104L385.776,115.104z M324.864,74.28
		c8.784,0,16.416-2.231,22.824-6.695c6.48-4.536,9.72-11.809,9.72-22.032c0-6.12-2.088-10.296-6.264-12.528
		c-4.176-2.231-8.712-3.527-13.68-3.888c-0.864-0.072-1.656-0.072-2.521-0.144c-0.864,0-1.656-0.072-2.52-0.145h-7.561v14.4h2.305
		c3.239,0,5.615,0.647,6.983,1.872c1.368,1.296,2.017,2.735,2.017,4.464c0,0.432,0,0.792-0.072,1.151
		c-0.072,0.433-0.145,0.792-0.288,1.152c-0.576,2.16-1.944,4.176-4.104,6.048c-1.943,1.656-4.247,2.521-6.84,2.592V74.28
		L324.864,74.28z M324.864,28.848v14.4l-7.487-0.072l-3.816,17.352h10.656c0.216,0,0.432,0,0.647,0V74.28l0,0l-14.328-0.071
		l-5.256,24.12h-18.216V91.2l12.96-62.353H324.864L324.864,28.848z M287.064,35.76l1.512-6.912h-1.512V35.76z M205.848,37.92
		c0.72,1.728,1.008,3.744,1.008,6.048c0,0.792,0,1.656-0.145,2.592c-0.071,0.864-0.216,1.8-0.504,2.736h-0.359V37.92L205.848,37.92z
		 M287.064,28.848h-16.632l-11.305,49.824l-12.096-49.824h-27.936l-13.248,64.44v5.04h16.991l10.584-52.849l12.816,52.849h27.288
		l13.536-62.568V28.848L287.064,28.848z M287.064,91.2v7.128h-1.44L287.064,91.2z M134.424,73.416c0-2.521,0.217-5.328,0.576-8.424
		c0.36-3.097,1.08-6.192,2.017-9.36c2.231-7.056,6.407-13.608,12.527-19.584c6.12-5.977,15.408-9.145,28.009-9.36
		c1.439,0,3.023,0,4.68,0.145c1.656,0.071,3.384,0.216,5.112,0.504c4.823,0.72,9.287,2.304,13.392,4.68
		c2.376,1.44,4.104,3.384,5.112,5.904v11.376l-20.736-0.072c0.072-0.36,0.072-0.647,0.144-1.008c0-0.36,0.072-0.648,0.072-0.937
		c0-2.304-0.72-3.96-2.016-5.04c-1.296-1.079-2.736-1.871-4.248-2.231c-0.864-0.216-1.656-0.288-2.448-0.36
		c-0.792-0.071-1.512-0.144-2.088-0.144s-1.152,0.072-1.729,0.144c-0.575,0.145-1.151,0.216-1.728,0.36
		c-2.88,0.864-5.616,3.096-8.352,6.552c-2.664,3.528-4.753,8.712-6.337,15.624c-0.071,0.576-0.216,1.152-0.287,1.729
		c-0.145,0.575-0.217,1.151-0.288,1.728c-0.145,1.224-0.288,2.376-0.433,3.528c-0.071,1.151-0.144,2.304-0.144,3.384
		c0,3.672,0.72,6.768,2.16,9.288c1.439,2.592,4.176,3.815,8.136,3.815c0.288,0,0.647,0,1.08,0c0.36,0,0.72,0,1.152-0.071
		c0.575,0,1.296-0.072,1.943-0.216c0.648-0.145,1.368-0.433,2.16-0.721c1.872-0.863,3.6-2.088,5.184-3.815
		c1.584-1.656,2.521-3.601,2.809-5.761l20.304-0.144c0.072,0.216,0.145,0.36,0.145,0.504c0.071,0.216,0.071,0.36,0.071,0.576
		c0,1.152-0.432,2.736-1.296,4.752c-0.792,2.088-2.16,4.248-3.96,6.479c-2.736,3.169-6.552,6.12-11.592,8.713
		c-5.04,2.664-11.521,3.96-19.44,3.96c-0.288,0-0.504,0-0.792,0c-0.216,0-0.504,0-0.863,0c-10.729,0-17.929-2.232-21.601-6.624
		c-3.6-4.464-5.688-9.36-6.191-14.688c-0.072-0.864-0.145-1.728-0.145-2.52c-0.072-0.864-0.072-1.729-0.072-2.593V73.416
		L134.424,73.416z M205.848,93.288l-1.08,5.04h1.08V93.288z"/>
</g>
</svg>
